<svg 
  version="1.1"
  baseProfile="full"
  width="400" height="400"
  xmlns="http://www.w3.org/2000/svg"
  viewBox="0 0 200 200"
>
  <svg width="200" height="200" viewBox="0 0 210 210">
    <ellipse cx="100" cy="100" rx="50" ry="50" fill="none" stroke-width="1" stroke="black" />
    <ellipse cx="100" cy="100" rx="60" ry="60" fill="none" stroke-width="2" stroke="black" />

    <g transform="translate(100, 100) rotate(-90)">
      <g transform="translate(50, 0) rotate(0)">
        <line x1="0" y1="0" x2="30" y2="0" stroke-width="2"  />
        <polyline 
          points="0,2 30,2 30,6 38,0 30,-6 30,-2, 0,-2"
          fill="green"
        />
        <g transform="translate(30, 10)">
          <text font-size="14" transform="rotate(90)" style="font-family: Roboto, sans-serif" alignment-baseline="middle" text-anchor="middle">ŷ</text>
        </g>
      </g>

      <g transform="translate(50, 0) rotate(90)">
        <line x1="0" y1="0" x2="30" y2="0" stroke-width="2"  />
        <polyline 
          points="0,2 30,2 30,6 38,0 30,-6 30,-2, 0,-2"
          fill="red"
        />
        <g transform="translate(33, -11)">
          <text font-size="14" transform="rotate(0)" style="font-family: Roboto, sans-serif" alignment-baseline="middle" text-anchor="middle">x̂</text>
        </g>
      </g>


      <circle cx="50" cy="0" r="6" fill="white" stroke-width="2" stroke="white" />
      <circle cx="50" cy="0" r="4" fill="white" stroke-width="2" stroke="blue" />
      <circle cx="50" cy="0" r="1" fill="blue" />

      <g transform="translate(37, 0)">
        <text font-size="14" transform="rotate(90)" style="font-family: Roboto, sans-serif" alignment-baseline="middle" text-anchor="middle">ẑ</text>
      </g>
    </g>

    <g transform="translate(100, 100) rotate(22)">
      <g transform="translate(60, 0) rotate(90)">
        <line x1="0" y1="0" x2="30" y2="0" stroke-width="2"  />
        <polyline 
          points="0,1 80,1 80,4 86,0 80,-4 80,-1, 0,-1"
          fill="#333"
        />
        <g transform="translate(80, 10)">
          <text font-size="14" transform="rotate(-112)" style="font-family: Roboto, sans-serif" alignment-baseline="middle" text-anchor="middle">v̄</text>
        </g>
      </g>

      <g transform="translate(60, 0) rotate(0)">
        <line x1="0" y1="0" x2="30" y2="0" stroke-width="2"  />
        <polyline 
          points="0,2 30,2 30,6 38,0 30,-6 30,-2, 0,-2"
          fill="green"
        />
        <g transform="translate(45, 0)">
          <text font-size="14" transform="rotate(-22)" style="font-family: Roboto, sans-serif" alignment-baseline="middle" text-anchor="middle">r̂</text>
        </g>
      </g>

      <g transform="translate(60, 0) rotate(90)">
        <line x1="0" y1="0" x2="30" y2="0" stroke-width="2"  />
        <polyline 
          points="0,2 30,2 30,6 38,0 30,-6 30,-2, 0,-2"
          fill="red"
        />
        <g transform="translate(30, -10)">
          <text font-size="14" transform="rotate(-112)" style="font-family: Roboto, sans-serif" alignment-baseline="middle" text-anchor="middle">t̂</text>
        </g>
      </g>


      <circle cx="60" cy="0" r="6" fill="white" stroke-width="2" stroke="white" />
      <circle cx="60" cy="0" r="4" fill="white" stroke-width="2" stroke="blue" />
      <circle cx="60" cy="0" r="1" fill="blue" />

      <g transform="translate(67, -10)">
        <text font-size="14" transform="rotate(-22)" style="font-family: Roboto, sans-serif" alignment-baseline="middle" text-anchor="middle">ẑ</text>
      </g>
    </g>
    
  </svg>
</svg>